<svg width="32" height="32" viewBox="0 0 32 32" fill="none" xmlns="http://www.w3.org/2000/svg">
  <rect width="32" height="32" fill="#0a0a0a"/>
  <rect x="8" y="8" width="4" height="4" fill="#ff00ff"/>
  <rect x="20" y="8" width="4" height="4" fill="#ff00ff"/>
  <rect x="12" y="8" width="4" height="4" fill="#00ffff"/>
  <rect x="16" y="8" width="4" height="4" fill="#00ffff"/>
  <rect x="4" y="12" width="4" height="4" fill="#ff00ff"/>
  <rect x="24" y="12" width="4" height="4" fill="#ff00ff"/>
  <rect x="8" y="12" width="4" height="4" fill="#00ffff"/>
  <rect x="12" y="12" width="4" height="4" fill="#ffff00"/>
  <rect x="16" y="12" width="4" height="4" fill="#ffff00"/>
  <rect x="20" y="12" width="4" height="4" fill="#00ffff"/>
  <rect x="4" y="16" width="4" height="4" fill="#00ffff"/>
  <rect x="8" y="16" width="4" height="4" fill="#ffff00"/>
  <rect x="12" y="16" width="4" height="4" fill="#ff0000"/>
  <rect x="16" y="16" width="4" height="4" fill="#ff0000"/>
  <rect x="20" y="16" width="4" height="4" fill="#ffff00"/>
  <rect x="24" y="16" width="4" height="4" fill="#00ffff"/>
  <rect x="8" y="20" width="4" height="4" fill="#00ffff"/>
  <rect x="12" y="20" width="4" height="4" fill="#ffff00"/>
  <rect x="16" y="20" width="4" height="4" fill="#ffff00"/>
  <rect x="20" y="20" width="4" height="4" fill="#00ffff"/>
  <rect x="12" y="24" width="4" height="4" fill="#ff00ff"/>
  <rect x="16" y="24" width="4" height="4" fill="#ff00ff"/>
</svg>
